<svg xmlns="http://www.w3.org/2000/svg" viewBox="0 0 160 160" role="img" aria-label="cartoon agent avatar">
  <rect width="160" height="160" rx="28" fill="#fff7ed"/>
  <circle cx="80" cy="76" r="42" fill="#e7b894"/>
  <path d="M38 73c3-29 22-47 48-46 24 1 39 18 38 46-18-3-37-13-51-29-8 15-19 24-35 29z" fill="#3f2a1d"/>
  <circle cx="64" cy="82" r="5" fill="#111827"/>
  <circle cx="96" cy="82" r="5" fill="#111827"/>
  <path d="M69 102c8 6 14 6 22 0" fill="none" stroke="#8a3d2b" stroke-width="5" stroke-linecap="round"/>
  <path d="M29 160c7-27 26-44 51-44s44 17 51 44H29z" fill="#7c3aed"/>
  <path d="M57 123h46v37H57z" fill="#ffffff" opacity=".18"/>
  <path d="M67 130c8 8 18 8 26 0" fill="none" stroke="#ffffff" stroke-width="6" stroke-linecap="round"/>
  <path d="M55 55c12-13 32-18 53-5" fill="none" stroke="#8b5e3c" stroke-width="7" stroke-linecap="round"/>
</svg>
